<svg xmlns="http://www.w3.org/2000/svg" width="28.3" height="17.72" viewBox="0 0 28.3 17.72">
	<path class="svg-tick" d="M0.32,2.02C1.75,2.89 3.03,3.87 4.27,4.89C4.91,5.38 5.48,5.92 6.07,6.45C6.66,6.98 7.25,7.5 7.8,8.06C8.93,9.16 10,10.3 11.04,11.46C12.07,12.62 13.06,13.82 14.02,15.03L8.64,14.62C10.02,13.17 11.43,11.75 12.91,10.39C14.38,9.02 15.92,7.74 17.5,6.48C19.08,5.23 20.76,4.08 22.49,2.97C24.23,1.88 26.01,0.82 28.01,0L28.3,0.28C25.53,3.18 22.72,6.03 19.9,8.88C17.07,11.72 14.29,14.6 11.43,17.41L11.11,17.72L10.85,17.36L5.39,9.83C3.57,7.33 1.78,4.79 0,2.25Z"/>
</svg>
